<?xml version="1.0" standalone="no"?>
<!DOCTYPE svg PUBLIC "-//W3C//DTD SVG 20010904//EN"
 "http://www.w3.org/TR/2001/REC-SVG-20010904/DTD/svg10.dtd">
<svg version="1.0" xmlns="http://www.w3.org/2000/svg"
 width="1162.000000pt" height="354.000000pt" viewBox="0 0 1162.000000 354.000000"
 preserveAspectRatio="xMidYMid meet">

<g transform="translate(0.000000,354.000000) scale(0.100000,-0.100000)"
fill="#000000" stroke="none">
<path d="M1570 3464 c-595 -50 -1079 -372 -1339 -892 -184 -365 -216 -811 -87
-1204 110 -338 338 -637 631 -831 279 -184 564 -270 895 -270 331 0 616 86
895 270 359 238 610 623 687 1053 28 159 28 391 0 550 -121 679 -667 1210
-1347 1309 -83 12 -271 20 -335 15z m411 -163 c310 -71 589 -235 789 -461 174
-198 289 -426 346 -690 27 -122 27 -448 0 -570 -64 -295 -198 -542 -405 -750
-205 -204 -461 -343 -751 -406 -122 -27 -458 -27 -580 0 -291 63 -546 202
-751 407 -227 227 -375 522 -418 833 -14 100 -14 302 0 402 49 352 245 706
512 922 229 186 469 292 762 336 17 2 116 3 220 1 145 -3 210 -8 276 -24z"/>
<path d="M1295 2908 c-336 -39 -670 -348 -750 -695 -19 -83 -22 -237 -5 -323
45 -230 244 -499 469 -637 71 -43 237 -120 296 -137 33 -10 71 -21 85 -26 92
-31 342 -42 457 -19 l66 13 152 -159 152 -159 31 26 c17 14 164 153 327 308
254 243 293 285 283 298 -13 16 -113 122 -244 258 -66 69 -72 78 -77 127 -3
28 -17 86 -33 127 -23 62 -28 99 -35 215 -7 152 -15 193 -54 299 -48 131 -75
172 -206 307 l-127 132 -58 -1 c-91 -1 -112 -40 -79 -147 8 -27 12 -51 10 -53
-3 -3 -22 11 -44 31 -22 20 -60 48 -83 63 -24 15 -61 39 -83 53 -37 25 -109
58 -145 67 -8 2 -33 8 -55 14 -37 10 -68 15 -150 23 -16 2 -61 0 -100 -5z
m-161 -197 c-139 -89 -208 -151 -273 -246 -81 -120 -121 -262 -121 -435 0 -98
18 -257 31 -282 7 -12 6 -18 -1 -18 -19 0 -60 118 -86 245 -7 33 -6 198 1 241
43 253 209 443 470 540 98 36 94 28 -21 -45z m1519 -1179 c26 -27 47 -53 47
-58 0 -5 -63 -70 -141 -143 l-140 -133 -50 53 c-27 29 -49 55 -49 58 0 7 272
270 280 270 3 1 26 -21 53 -47z"/>
<path d="M3590 1690 l0 -1560 30 0 30 0 0 1560 0 1560 -30 0 -30 0 0 -1560z"/>
<path d="M6446 3184 c-9 -25 -7 -1287 3 -1303 25 -40 287 -40 312 0 5 8 9 162
9 343 l0 328 258 -249 c494 -479 477 -465 520 -461 l37 3 3 663 c2 624 1 663
-15 670 -34 13 -269 8 -286 -7 -15 -12 -17 -52 -19 -351 l-3 -338 -365 358
c-360 354 -366 359 -406 360 -29 0 -44 -5 -48 -16z"/>
<path d="M8375 3190 c-223 -33 -412 -164 -503 -350 -57 -116 -75 -193 -75
-320 0 -127 18 -204 74 -319 76 -155 223 -275 404 -330 67 -20 101 -24 215
-24 158 -1 251 20 365 82 61 32 70 41 73 68 6 63 -74 241 -116 258 -9 3 -42
-7 -77 -24 -129 -65 -285 -79 -387 -33 -70 31 -141 102 -174 175 -23 52 -28
76 -28 147 -1 72 3 94 27 145 34 73 95 138 162 173 40 21 68 27 141 30 104 5
173 -11 267 -60 l57 -31 26 24 c30 28 59 81 85 158 30 87 27 104 -31 141 -122
78 -332 116 -505 90z"/>
<path d="M5115 3182 l-30 -7 0 -505 0 -505 27 -58 c53 -112 173 -204 319 -243
86 -23 271 -23 359 -1 149 39 271 134 328 254 l27 58 3 491 c3 452 2 492 -14
505 -13 10 -49 14 -143 14 -69 0 -134 -3 -143 -7 -17 -7 -18 -36 -18 -415 0
-421 -3 -461 -42 -516 -42 -59 -159 -91 -246 -68 -51 14 -110 64 -128 108 -11
25 -14 122 -14 451 0 370 -2 421 -16 433 -17 14 -218 23 -269 11z"/>
<path d="M9160 3183 c-52 -11 -50 19 -50 -664 l0 -638 23 -13 c25 -13 225 -18
270 -5 l27 7 0 260 0 260 290 0 290 0 0 -249 c0 -206 3 -252 15 -264 32 -32
268 -32 301 0 12 12 14 108 14 647 0 577 -1 635 -17 647 -12 10 -51 14 -148
14 -97 0 -136 -4 -148 -14 -15 -12 -17 -42 -17 -242 l0 -229 -290 0 -290 0 0
234 c0 174 -3 237 -12 242 -15 9 -222 15 -258 7z"/>
<path d="M3927 3174 c-4 -4 -7 -296 -7 -649 0 -579 2 -644 16 -656 18 -15 228
-20 277 -6 l27 7 0 220 0 220 133 0 c155 0 231 12 307 48 146 69 244 254 226
428 -18 173 -113 305 -263 366 -56 22 -71 23 -383 26 -179 2 -329 0 -333 -4z
m590 -330 c15 -11 34 -39 42 -61 13 -35 13 -46 0 -78 -26 -69 -53 -80 -192
-80 l-122 0 -3 109 c-1 61 0 116 3 124 4 11 29 13 124 10 102 -3 124 -6 148
-24z"/>
<path d="M10645 3168 c-3 -7 -4 -303 -3 -658 l3 -645 452 -3 c451 -2 452 -2
463 19 15 28 16 240 1 268 -11 20 -18 21 -304 23 l-292 3 0 115 0 115 245 3
c180 2 246 6 252 15 11 18 10 215 -2 238 -10 18 -24 19 -255 19 l-245 0 0 95
0 95 295 0 c290 0 294 0 306 21 15 28 14 240 -1 268 -11 21 -14 21 -461 21
-350 0 -451 -3 -454 -12z"/>
<path d="M7426 535 c-13 -20 -14 -25 -3 -25 7 0 24 11 37 25 23 24 23 25 3 25
-11 0 -28 -11 -37 -25z"/>
<path d="M2730 482 l-63 -58 148 -164 c81 -91 151 -165 156 -165 12 0 128 98
128 108 1 8 -286 330 -299 335 -3 1 -35 -24 -70 -56z"/>
<path d="M4030 335 c0 -148 1 -155 20 -155 19 0 20 7 20 155 0 148 -1 155 -20
155 -19 0 -20 -7 -20 -155z"/>
<path d="M4230 335 c0 -148 1 -155 20 -155 19 0 20 7 20 113 l0 112 73 -112
c101 -158 107 -156 107 42 0 147 -1 155 -20 155 -18 0 -20 -8 -22 -112 l-3
-113 -70 112 c-99 158 -105 155 -105 -42z"/>
<path d="M4580 482 c0 -4 22 -73 48 -152 30 -88 54 -146 63 -148 10 -2 29 42
66 153 50 150 51 155 30 155 -19 0 -26 -14 -57 -120 -19 -65 -38 -116 -41
-112 -4 4 -21 58 -39 120 -27 90 -37 112 -52 112 -10 0 -18 -3 -18 -8z"/>
<path d="M4940 335 l0 -155 95 0 c88 0 95 1 95 20 0 18 -7 20 -75 20 l-75 0 0
50 0 50 60 0 c47 0 60 3 60 15 0 12 -13 15 -60 15 l-60 0 0 50 0 50 75 0 c68
0 75 2 75 20 0 19 -7 20 -95 20 l-95 0 0 -155z"/>
<path d="M5305 478 c-32 -17 -45 -39 -45 -79 0 -46 30 -73 92 -83 68 -11 89
-44 50 -79 -23 -21 -62 -22 -108 -2 -31 13 -36 13 -41 -2 -8 -21 18 -40 68
-48 86 -15 146 28 135 95 -7 44 -32 65 -87 74 -52 8 -69 21 -69 52 0 35 39 51
87 36 31 -9 40 -9 52 3 13 13 10 16 -22 30 -42 18 -84 19 -112 3z"/>
<path d="M5570 470 c0 -17 7 -20 45 -20 l45 0 0 -135 c0 -128 1 -135 20 -135
19 0 20 7 20 135 l0 135 40 0 c33 0 40 3 40 20 0 19 -7 20 -105 20 -98 0 -105
-1 -105 -20z"/>
<path d="M5910 335 c0 -148 1 -155 20 -155 19 0 20 7 20 155 0 148 -1 155 -20
155 -19 0 -20 -7 -20 -155z"/>
<path d="M6155 479 c-45 -26 -55 -50 -55 -142 0 -98 12 -127 60 -147 74 -31
141 17 148 105 l4 55 -51 0 c-44 0 -51 -3 -51 -20 0 -16 7 -20 30 -20 25 0 30
-4 30 -23 0 -28 -38 -67 -66 -67 -11 0 -30 7 -42 16 -20 14 -22 24 -22 99 0
75 2 85 22 99 32 23 64 20 86 -9 24 -31 63 -35 55 -6 -13 51 -102 87 -148 60z"/>
<path d="M6546 482 c-7 -12 -106 -285 -106 -294 0 -4 8 -8 19 -8 12 0 21 11
27 33 10 31 11 32 75 35 l66 3 9 -33 c7 -24 16 -34 33 -36 20 -3 23 0 17 15
-14 35 -106 287 -106 290 0 7 -29 2 -34 -5z m58 -169 c7 -22 5 -23 -43 -23
l-50 0 20 58 c10 31 22 64 25 72 6 14 20 -19 48 -107z"/>
<path d="M6855 479 c-45 -26 -55 -50 -55 -142 0 -98 12 -127 61 -147 16 -7 43
-10 61 -6 35 7 78 42 78 63 0 20 -35 16 -55 -7 -22 -24 -53 -26 -83 -4 -20 14
-22 24 -22 99 0 75 2 85 22 99 32 23 64 20 86 -9 24 -31 63 -35 55 -6 -13 51
-102 87 -148 60z"/>
<path d="M7140 335 c0 -148 1 -155 20 -155 19 0 20 7 20 155 0 148 -1 155 -20
155 -19 0 -20 -7 -20 -155z"/>
<path d="M7385 479 c-45 -26 -55 -50 -55 -142 0 -63 4 -94 15 -111 35 -53 121
-58 166 -10 22 23 24 34 24 120 0 87 -2 95 -26 120 -30 29 -93 41 -124 23z
m92 -51 c20 -18 23 -31 23 -92 0 -58 -4 -74 -22 -93 -25 -27 -54 -29 -86 -7
-20 14 -22 24 -22 99 0 75 2 85 22 99 31 22 58 20 85 -6z"/>
<path d="M7690 335 c0 -148 1 -155 20 -155 19 0 20 7 20 113 l0 112 73 -112
c101 -158 107 -156 107 42 0 147 -1 155 -20 155 -18 0 -20 -8 -22 -112 l-3
-113 -70 112 c-99 158 -105 155 -105 -42z"/>
<path d="M8270 335 l0 -155 56 0 c110 0 154 44 154 155 0 113 -42 155 -155
155 l-55 0 0 -155z m145 90 c21 -21 25 -33 25 -88 0 -86 -22 -117 -86 -117
l-44 0 0 115 0 115 40 0 c30 0 47 -7 65 -25z"/>
<path d="M8630 335 l0 -155 95 0 c88 0 95 1 95 20 0 18 -7 20 -75 20 l-75 0 0
50 0 50 60 0 c47 0 60 3 60 15 0 12 -13 15 -60 15 l-60 0 0 50 0 50 75 0 c68
0 75 2 75 20 0 19 -7 20 -95 20 l-95 0 0 -155z"/>
<path d="M9150 336 c0 -148 1 -156 20 -156 18 0 20 8 22 98 l3 97 30 -72 c40
-97 55 -97 100 -1 l34 73 0 -97 c1 -91 2 -98 21 -98 19 0 20 7 20 156 0 142
-2 155 -17 152 -11 -2 -32 -37 -58 -96 -23 -52 -45 -92 -51 -91 -5 2 -27 44
-50 94 -24 55 -47 91 -57 93 -15 3 -17 -11 -17 -152z"/>
<path d="M9570 335 l0 -155 95 0 c88 0 95 1 95 20 0 18 -7 20 -75 20 l-75 0 0
50 0 50 60 0 c47 0 60 3 60 15 0 12 -13 15 -60 15 l-60 0 0 50 0 50 75 0 c68
0 75 2 75 20 0 19 -7 20 -95 20 l-95 0 0 -155z"/>
<path d="M9900 335 c0 -148 1 -155 20 -155 18 0 20 7 20 70 l0 70 30 0 c27 0
33 -7 65 -70 26 -51 41 -70 55 -70 26 0 26 2 -12 71 l-31 60 26 27 c28 30 36
77 17 112 -13 25 -62 40 -131 40 l-59 0 0 -155z m154 99 c20 -19 20 -34 0 -62
-12 -18 -25 -22 -65 -22 l-49 0 0 50 0 50 49 0 c32 0 55 -6 65 -16z"/>
<path d="M10295 479 c-45 -26 -55 -50 -55 -142 0 -98 12 -127 61 -147 16 -7
43 -10 61 -6 35 7 78 42 78 63 0 20 -35 16 -55 -7 -22 -24 -53 -26 -83 -4 -20
14 -22 24 -22 99 0 75 2 85 22 99 32 23 64 20 86 -9 24 -31 63 -35 55 -6 -13
51 -102 87 -148 60z"/>
<path d="M10656 482 c-7 -12 -106 -285 -106 -294 0 -4 8 -8 19 -8 12 0 21 11
27 33 10 31 11 32 75 35 l66 3 9 -33 c7 -24 16 -34 33 -36 20 -3 23 0 17 15
-14 35 -106 287 -106 290 0 7 -29 2 -34 -5z m58 -169 c7 -22 5 -23 -43 -23
l-50 0 20 58 c10 31 22 64 25 72 6 14 20 -19 48 -107z"/>
<path d="M10930 335 l0 -155 56 0 c110 0 154 44 154 155 0 113 -42 155 -155
155 l-55 0 0 -155z m145 90 c21 -21 25 -33 25 -88 0 -86 -22 -117 -86 -117
l-44 0 0 115 0 115 40 0 c30 0 47 -7 65 -25z"/>
<path d="M11345 479 c-45 -26 -55 -50 -55 -142 0 -63 4 -94 15 -111 35 -53
121 -58 166 -10 22 23 24 34 24 120 0 87 -2 95 -26 120 -30 29 -93 41 -124 23z
m92 -51 c20 -18 23 -31 23 -92 0 -58 -4 -74 -22 -93 -25 -27 -54 -29 -86 -7
-20 14 -22 24 -22 99 0 75 2 85 22 99 31 22 58 20 85 -6z"/>
</g>
</svg>
