<svg xmlns="http://www.w3.org/2000/svg" width="294.961" height="60" viewBox="0 0 294.961 60"><g transform="translate(-393 -132)"><g transform="translate(393 132)"><g transform="translate(0 0)"><path d="M73.162,35.707c2.482-2.932,3.581-4.286,3.343-5.026a2.538,2.538,0,0,0-1.629-1.373,3.923,3.923,0,0,0-2.861-.139,10.045,10.045,0,0,0-1.4,1.469l-.784.885h0c-.5-.511-1.033-1.018-1.554-1.472A26.653,26.653,0,0,0,54.815,23.81a8.2,8.2,0,0,0-7.244-2.736,7.939,7.939,0,0,0-5.4,3.662A29.941,29.941,0,0,0,28.813,33.2v0a6.165,6.165,0,0,0-3.726.686A1.891,1.891,0,0,0,23.994,35.1c-.061.347.079.892,1.474,2.483v0A29.48,29.48,0,0,0,21.1,56.629,26.944,26.944,0,0,0,30.107,73.85a26.615,26.615,0,0,0,5.827,3.862,32.841,32.841,0,0,0,30.618-1.082l.011-.008a1.667,1.667,0,0,0,.651-2.195l-.113-.255c-1.542-3.455-6.233-13.971-3.62-23.564,1.092-4.015,4.244-8.291,6.967-11.646h0a26.183,26.183,0,0,1,4.166,15.116,23.949,23.949,0,0,1-4.769,13.517.568.568,0,0,0-.085.576l.3.693a.567.567,0,0,0,.956.12h0C78.715,59.217,79.637,45.777,73.162,35.707ZM39.131,58.394a54.326,54.326,0,0,0-.7,16l0,0a27.144,27.144,0,0,1-5.547-3.731,26.618,26.618,0,0,1-8.748-15.349A24.683,24.683,0,0,1,26.782,39h0c1.033,1.079,2.28,2.318,3.587,3.613,3.2,3.169,6.824,6.764,8.588,9.319,1.022,1.48.7,3.353.174,6.457M66.939,34.6c-5.894,5.924-11.451,9.137-16.506,9.519-3.889.293-8.012-.865-12.246-3.447a47.232,47.232,0,0,1-7.819-6.206l-.165-.155h0a24.033,24.033,0,0,1,10.643-6.6v0h0l0,0a12.025,12.025,0,0,0-.244,5.024,11.346,11.346,0,0,0,4.341,7.441,7.617,7.617,0,0,0,10.994-1.728,11.345,11.345,0,0,0,1.849-8.413,12.527,12.527,0,0,0-.379-1.666v0a26.818,26.818,0,0,1,8.085,4.866c.491.428.977.886,1.449,1.362Z" transform="translate(-20.907 -20.985)" fill="#da291c"/><path d="M228.226,68.754h-4.837v5.471a1.933,1.933,0,0,0,2.045,2.135,5.805,5.805,0,0,0,2.792-.777V78.6a9.447,9.447,0,0,1-3.855.839c-2.766,0-5.156-1.268-5.156-4.983V68.754h-1.9v-.8l5.554-6.216h.519v4.172h4.837Zm57.11,4.439c-2.824,1.356-4.55,2.158-7.112,2.158-4.089,0-7-2.5-7-6.019,0-3.483,2.943-5.962,7.117-5.962a13.781,13.781,0,0,1,6.77,2.014V61.011a13.828,13.828,0,0,0-7.115-1.731c-7.518,0-11.814,4.9-11.814,10.138,0,5.071,3.806,10.024,11.442,10.024a15.188,15.188,0,0,0,7.716-1.96Zm-101.9,4.253-2.97,1.986a3.956,3.956,0,0,1-2.6-1.64,5.2,5.2,0,0,1-3.94,1.64c-4.489,0-6.3-4-6.3-6.885,0-3.194,1.953-6.91,6.418-6.91a6.739,6.739,0,0,1,3.484.9v-.64h4.147v8.668C181.678,75.779,181.911,77.125,183.437,77.446Zm-5.931-8.267a4.516,4.516,0,0,0-2.422-.752c-2.36,0-3.167,2.508-3.167,4.41,0,1.758.923,3.6,3.248,3.6a3.356,3.356,0,0,0,2.34-.892Zm34.024,4.033h-9.536c.145,2.361,1.756,3.746,4.382,3.746,1.668,0,2.962-.49,4.92-1.9v2.618a9.613,9.613,0,0,1-5.932,1.757c-4.664,0-7.687-2.7-7.687-6.859a6.7,6.7,0,0,1,7-6.936C208.535,65.638,211.732,68.374,211.53,73.212Zm-3.516-2.189a2.849,2.849,0,0,0-2.881-2.9c-1.646,0-2.706,1.06-2.884,2.9Zm51.9,2.2h-9.535c.144,2.361,1.758,3.746,4.377,3.746,1.673,0,2.971-.489,4.931-1.9v2.618a9.637,9.637,0,0,1-5.939,1.757c-4.665,0-7.686-2.7-7.686-6.859a6.7,6.7,0,0,1,7-6.936C256.92,65.648,260.12,68.384,259.917,73.222Zm-3.686-2.19a2.85,2.85,0,0,0-2.885-2.9c-1.637,0-2.706,1.06-2.878,2.9ZM234.676,59.539H230.5V79.18h4.175V71.318a2.61,2.61,0,0,1,2.793-2.621c1.3,0,2.159.927,2.159,2.912V79.18h4.183V70.718c0-3.605-2.45-5.07-4.873-5.07a5.237,5.237,0,0,0-4.261,2.217h0Zm58.019,0h-4.174V79.18H292.7V71.318a2.61,2.61,0,0,1,2.794-2.621c1.3,0,2.158.927,2.158,2.912V79.18h4.183V70.718c0-3.605-2.45-5.07-4.873-5.07a5.237,5.237,0,0,0-4.261,2.217h0ZM164.762,60.806a16.072,16.072,0,0,0-6.657-1.526c-4.549,0-7.487,2.25-7.487,5.645,0,7.054,9.992,5.88,9.992,9.106,0,1.146-1,1.809-2.876,1.809-2.165,0-3.892-.663-6.71-2.535v4.237a13.357,13.357,0,0,0,7.081,1.9c4.383,0,7.549-2.189,7.549-5.959,0-6.861-9.993-6.024-9.993-8.993,0-.971,1.12-1.608,2.876-1.608,1.676,0,3.368.488,6.224,1.754ZM306.646,59.28a2.3,2.3,0,1,0,2.3,2.3A2.309,2.309,0,0,0,306.646,59.28Zm2.1,6.625h-4.173V79.18h4.173Zm7.38-6.366h-4.173V73.946c0,2.615.719,5.351,5.069,5.5l1.325-3.024c-1.785-.342-2.222-1.152-2.222-3.169Zm24.7,6.366h-4.172V79.18h4.172V73.341c0-2.471,1.289-3.773,3.434-3.773a4.837,4.837,0,0,1,2.473.97l1.153-3.683a4.548,4.548,0,0,0-2.763-1.207,4.7,4.7,0,0,0-4.3,3.323ZM362.2,73.222h-9.534c.147,2.361,1.755,3.746,4.374,3.746,1.672,0,2.97-.489,4.928-1.9v2.618a9.624,9.624,0,0,1-5.936,1.757c-4.664,0-7.687-2.7-7.687-6.859a6.7,6.7,0,0,1,6.995-6.936C359.2,65.648,362.4,68.384,362.2,73.222Zm-3.69-2.19a2.845,2.845,0,0,0-2.879-2.9c-1.64,0-2.706,1.06-2.878,2.9Zm14.73-5.37a5.236,5.236,0,0,0-4.261,2.217V65.905H364.8V79.2h4.174V71.281a2.629,2.629,0,0,1,2.794-2.569c1.3,0,2.158.926,2.158,2.912V79.2h4.182V70.732C378.11,67.128,375.66,65.663,373.238,65.663Zm-39.675-6.124h-4.174v6.938a7.834,7.834,0,0,0-3.462-.829c-3.8,0-6.447,2.82-6.447,6.884,0,3.974,2.65,6.911,6.223,6.911a5.449,5.449,0,0,0,3.687-1.324V79.18h4.174Zm-4.174,16.014a3.516,3.516,0,0,1-2.476,1.09c-1.963,0-3.193-1.608-3.193-4.026,0-2.649,1.23-4.179,3.337-4.179a4.616,4.616,0,0,1,2.331.773ZM197.512,65.895h-4.434l-2.853,7.317L187.4,65.895h-4.077l5.643,13.285h2.553Z" transform="translate(-83.149 -39.361)"/></g></g></g></svg>